<?xml version="1.0" encoding="UTF-8" standalone="no"?>
<svg
   width="16"
   height="16"
   version="1.1"
   viewBox="0 0 16 16"
   id="svg7"
   sodipodi:docname="applications-symbolic.svg"
   inkscape:version="1.4.2 (ebf0e940d0, 2025-05-08)"
   xmlns:inkscape="http://www.inkscape.org/namespaces/inkscape"
   xmlns:sodipodi="http://sodipodi.sourceforge.net/DTD/sodipodi-0.dtd"
   xmlns="http://www.w3.org/2000/svg"
   xmlns:svg="http://www.w3.org/2000/svg">
  <sodipodi:namedview
     id="namedview9"
     pagecolor="#ffffff"
     bordercolor="#666666"
     borderopacity="1.0"
     inkscape:pageshadow="2"
     inkscape:pageopacity="0.0"
     inkscape:pagecheckerboard="0"
     showgrid="true"
     inkscape:zoom="27.352831"
     inkscape:cx="20.418362"
     inkscape:cy="11.241981"
     inkscape:window-width="1870"
     inkscape:window-height="1011"
     inkscape:window-x="50"
     inkscape:window-y="32"
     inkscape:window-maximized="1"
     inkscape:current-layer="svg7"
     inkscape:showpageshadow="2"
     inkscape:deskcolor="#d1d1d1">
    <inkscape:grid
       id="grid1"
       units="px"
       originx="0"
       originy="0"
       spacingx="1"
       spacingy="1"
       empcolor="#0099e5"
       empopacity="0.30196078"
       color="#0099e5"
       opacity="0.14902"
       empspacing="5"
       enabled="true"
       visible="true" />
  </sodipodi:namedview>
  <defs
     id="defs3">
    <inkscape:path-effect
       effect="fillet_chamfer"
       id="path-effect2"
       is_visible="true"
       lpeversion="1"
       nodesatellites_param="F,0,0,1,0,0,0,1 @ F,0,0,1,0,0,0,1 @ F,0,0,1,0,0,0,1 @ F,0,0,1,0,0,0,1 @ F,0,0,1,0,0,0,1 @ F,0,0,1,0,0,0,1 @ F,0,0,1,0,0,0,1 @ F,0,0,1,0,0,0,1 @ F,0,0,1,0,0,0,1 @ F,0,0,1,0,0,0,1 @ F,0,0,1,0,0,0,1 @ F,0,0,1,0,0,0,1 | F,0,0,1,0,0,0,1 @ F,0,0,1,0,0,0,1 @ F,0,0,1,0,0,0,1 @ F,0,0,1,0,0,0,1"
       radius="0"
       unit="px"
       method="auto"
       mode="F"
       chamfer_steps="1"
       flexible="false"
       use_knot_distance="true"
       apply_no_radius="true"
       apply_with_radius="true"
       only_selected="false"
       hide_knots="false" />
    <style
       id="current-color-scheme"
       type="text/css">.ColorScheme-Text { color:#363636; }</style>
  </defs>
  <path
     d="M 2,1 A 1,1.0009775 0 0 0 1,2.0019531 V 7 7.0019531 A 1,1.0009775 0 0 0 1.9375,8 h 0.125 4.875 0.125 A 1,1.0009775 0 0 0 8,7.0019531 1,1.0009775 0 0 0 8,7 V 2.0019531 A 1,1.0009775 0 0 0 7,1 Z M 3,3 H 6 V 6 H 3 Z"
     style="fill:#3e3e3e;stroke-width:1.00098;stroke-dasharray:2.00196, 1.50147;stroke-dashoffset:0.860841"
     id="path4" />
  <path
     d="M 10.000001,1.0000031 A 1,1.0009775 0 0 0 9.0000005,2.0019562 v 4.9980469 0.00195 A 1,1.0009775 0 0 0 9.9375005,8 h 0.1250005 4.875 0.125 a 1,1.0009775 0 0 0 0.9375,-0.9980469 1,1.0009775 0 0 0 0,-0.00195 V 2.0019562 a 1,1.0009775 0 0 0 -1,-1.0019531 z m 1,2 h 3 v 3 h -3 z"
     style="fill:#3e3e3e;stroke-width:1.00098;stroke-dasharray:2.00196, 1.50147;stroke-dashoffset:0.860841"
     id="path4-6" />
  <path
     d="M 2,9.0000469 A 1,1.0009775 0 0 0 1,10.002 v 4.998047 0.002 a 1,1.0009775 0 0 0 0.9375,0.998047 h 0.125 4.875 0.125 A 1,1.0009775 0 0 0 8,15.002 1,1.0009775 0 0 0 8,15 V 10.002 A 1,1.0009775 0 0 0 7,9.0000469 Z m 1,2.0000001 h 3 v 3 H 3 Z"
     style="fill:#3e3e3e;stroke-width:1.00098;stroke-dasharray:2.00196, 1.50147;stroke-dashoffset:0.860841"
     id="path4-8" />
  <path
     d="m 10.000001,9.00005 a 1,1.0009775 0 0 0 -1.0000005,1.001953 v 4.998047 0.002 a 1,1.0009775 0 0 0 0.9375,0.998047 h 0.1250005 4.875 0.125 a 1,1.0009775 0 0 0 0.9375,-0.998047 1,1.0009775 0 0 0 0,-0.002 V 10.001953 A 1,1.0009775 0 0 0 15.000001,9 Z m 1,2 h 3 v 3 h -3 z"
     style="fill:#3e3e3e;stroke-width:1.00098;stroke-dasharray:2.00196, 1.50147;stroke-dashoffset:0.860841"
     id="path4-6-7" />
</svg>
