<?xml version="1.0" encoding="UTF-8" standalone="no"?>
<svg
   width="16"
   height="16"
   version="1.1"
   viewBox="0 0 16 16"
   id="svg7"
   sodipodi:docname="applications-symbolic.svg"
   inkscape:version="1.4.2 (ebf0e940d0, 2025-05-08)"
   xmlns:inkscape="http://www.inkscape.org/namespaces/inkscape"
   xmlns:sodipodi="http://sodipodi.sourceforge.net/DTD/sodipodi-0.dtd"
   xmlns="http://www.w3.org/2000/svg"
   xmlns:svg="http://www.w3.org/2000/svg">
  <sodipodi:namedview
     id="namedview9"
     pagecolor="#ffffff"
     bordercolor="#666666"
     borderopacity="1.0"
     inkscape:pageshadow="2"
     inkscape:pageopacity="0.0"
     inkscape:pagecheckerboard="0"
     showgrid="false"
     inkscape:zoom="40.031784"
     inkscape:cx="7.2567337"
     inkscape:cy="8.0810787"
     inkscape:window-width="1870"
     inkscape:window-height="1011"
     inkscape:window-x="50"
     inkscape:window-y="32"
     inkscape:window-maximized="1"
     inkscape:current-layer="svg7"
     inkscape:showpageshadow="2"
     inkscape:deskcolor="#d1d1d1" />
  <defs
     id="defs3">
    <style
       id="current-color-scheme"
       type="text/css">.ColorScheme-Text { color:#363636; }</style>
  </defs>
  <path
     d="m 2.5,0.5 c -1.0898,0 -2,0.91016 -2,2 v 3 c 0,1.0898 0.91016,2 2,2 h 3 c 1.0898,0 2,-0.91016 2,-2 v -3 c 0,-1.0898 -0.91016,-2 -2,-2 z m 8,0 c -1.0898,0 -2,0.91016 -2,2 v 3 c 0,1.0898 0.91016,2 2,2 h 3 c 1.0898,0 2,-0.91016 2,-2 v -3 c 0,-1.0898 -0.91016,-2 -2,-2 z m -8,2 h 3 v 3 h -3 z m 8,0 h 3 v 3 h -3 z m -8,6 c -1.0898,0 -2,0.91016 -2,2 v 3 c 0,1.0898 0.91016,2 2,2 h 3 c 1.0898,0 2,-0.91016 2,-2 v -3 c 0,-1.0898 -0.91016,-2 -2,-2 z m 8,0 c -1.0898,0 -2,0.91016 -2,2 v 3 c 0,1.0898 0.91016,2 2,2 h 3 c 1.0898,0 2,-0.91016 2,-2 v -3 c 0,-1.0898 -0.91016,-2 -2,-2 z m -8,2 h 3 v 3 h -3 z m 8,0 h 3 v 3 h -3 z"
     fill="#2e3436"
     id="path1" />
</svg>
