<?xml version="1.0" encoding="UTF-8" standalone="no"?>
<svg
   height="16px"
   viewBox="0 0 16 16"
   width="16px"
   version="1.1"
   id="svg1"
   sodipodi:docname="caffeine-short-timer-symbolic.svg"
   inkscape:version="1.4.2 (ebf0e940d0, 2025-05-08)"
   xmlns:inkscape="http://www.inkscape.org/namespaces/inkscape"
   xmlns:sodipodi="http://sodipodi.sourceforge.net/DTD/sodipodi-0.dtd"
   xmlns="http://www.w3.org/2000/svg"
   xmlns:svg="http://www.w3.org/2000/svg">
  <defs
     id="defs1" />
  <sodipodi:namedview
     id="namedview1"
     pagecolor="#ffffff"
     bordercolor="#000000"
     borderopacity="0.25"
     inkscape:showpageshadow="2"
     inkscape:pageopacity="0.0"
     inkscape:pagecheckerboard="0"
     inkscape:deskcolor="#d1d1d1"
     showgrid="true"
     showguides="true"
     inkscape:zoom="42.756438"
     inkscape:cx="7.0164872"
     inkscape:cy="6.4668623"
     inkscape:window-width="1870"
     inkscape:window-height="1011"
     inkscape:window-x="50"
     inkscape:window-y="32"
     inkscape:window-maximized="1"
     inkscape:current-layer="svg1">
    <inkscape:grid
       id="grid3"
       units="px"
       originx="0"
       originy="0"
       spacingx="1"
       spacingy="1"
       empcolor="#0099e5"
       empopacity="0.30196078"
       color="#0099e5"
       opacity="0.14901961"
       empspacing="5"
       enabled="true"
       visible="true" />
    <sodipodi:guide
       position="8,8"
       orientation="1,0"
       id="guide3"
       inkscape:locked="false" />
    <sodipodi:guide
       position="8,8"
       orientation="0,-1"
       id="guide4"
       inkscape:locked="false" />
    <sodipodi:guide
       position="8,8"
       orientation="0.70710678,-0.70710678"
       id="guide5"
       inkscape:locked="false" />
  </sodipodi:namedview>
  <path
     d="m 4.0082523,10.986688 c 5.954e-4,0.06187 0.00615,0.122342 0.017578,0.18164 0.06362,0.330058 0.2895339,0.611687 0.6074218,0.744141 0.378906,0.152343 0.808594,0.0625 1.09375,-0.230469 L 5.9516116,11.457391 7.5043459,9.9046565 c 0.031712,0.00847 0.063803,0.012668 0.095703,0.019531 0.035657,0.00767 0.071604,0.013847 0.1074216,0.019531 0.047841,0.00764 0.096006,0.013443 0.1445316,0.017578 0.040557,0.00342 0.080572,0.00491 0.1210934,0.00586 0.04653,0.0011 0.093767,2.539e-4 0.140625,-0.00195 0.043644,-0.00205 0.087548,-0.00489 0.1308593,-0.00977 0.029784,-0.00339 0.058561,-0.00706 0.087891,-0.011719 0.044623,-0.00704 0.088807,-0.015375 0.1328122,-0.025391 0.035343,-0.00809 0.070923,-0.015481 0.1054685,-0.025391 0.050651,-0.014448 0.1009911,-0.032375 0.1503908,-0.050781 0.043021,-0.016145 0.085477,-0.033802 0.1269532,-0.052734 0.043662,-0.019786 0.086657,-0.039547 0.1289061,-0.0625 0.037617,-0.020567 0.07333,-0.043566 0.1093752,-0.066406 0.019796,-0.012471 0.039203,-0.025867 0.058594,-0.039063 0.2031643,-0.1390227 0.3804773,-0.3124423 0.5195291,-0.5136742 0.066537,-0.09657 0.1249272,-0.2011774 0.1738278,-0.3085939 0.013445,-0.029649 0.025187,-0.059704 0.037109,-0.089844 0.027451,-0.069048 0.050612,-0.1405237 0.070312,-0.2128906 0.011923,-0.04416 0.024358,-0.088081 0.033203,-0.1328129 0.0084,-0.041854 0.01386,-0.084284 0.01953,-0.1269533 0.0057,-0.042894 0.0089,-0.085789 0.011721,-0.1289063 0.0041,-0.061385 0.0055,-0.1229673 0.0039,-0.185547 -0.0014,-0.051979 -0.0024,-0.1044835 -0.0078,-0.1562499 -0.0038,-0.03728 -0.0098,-0.074751 -0.01563,-0.1113283 C 9.979682,7.5865325 9.9677148,7.5184323 9.9496559,7.4515259 9.942046,7.4231356 9.9311127,7.3953816 9.9223121,7.3675414 9.8965246,7.2864596 9.868853,7.2052148 9.8324681,7.1273071 9.7517092,6.9535227 9.6441344,6.7961556 9.519968,6.6546509 9.5028376,6.6352577 9.4852094,6.6169225 9.4672602,6.5979833 9.4224141,6.550733 9.3757791,6.5058644 9.3266658,6.4631872 9.2954647,6.4360873 9.2634363,6.4098572 9.2309625,6.3850625 9.177064,6.3438354 9.1208958,6.3054552 9.0629936,6.2698283 9.0404603,6.2560065 9.0175783,6.2436151 8.9946348,6.2307649 8.9469079,6.2039316 8.8981091,6.1794516 8.8481506,6.1565456 8.7797826,6.1253968 8.7099539,6.0975576 8.639166,6.0745149 8.613165,6.065995 8.5874715,6.0565919 8.5610406,6.0491241 8.5126858,6.0355519 8.4636182,6.0238323 8.4145563,6.0139681 8.3445478,5.999838 8.273874,5.9892768 8.2016657,5.9827181 8.0422547,5.9682332 7.8816701,5.9746681 7.72315,5.998343 7.689882,6.003333 7.656334,6.007333 7.62354,6.013968 7.581575,6.022408 7.539999,6.034067 7.4985402,6.045218 7.4675662,6.053628 7.4371772,6.062701 7.4067482,6.072562 7.3669242,6.08535 7.3267132,6.098235 7.2876017,6.11358 7.2513137,6.127941 7.2154757,6.144035 7.1801799,6.160455 7.1497859,6.174514 7.1201389,6.187757 7.0903359,6.203424 7.0251249,6.237801 6.9618249,6.273476 6.9008826,6.314752 6.8733656,6.333345 6.8475756,6.355189 6.8208046,6.375299 6.7852386,6.402083 6.7510276,6.430168 6.7172889,6.459283 c -0.029926,0.025768 -0.059169,0.052253 -0.087888,0.080081 -0.019141,0.018611 -0.036277,0.039205 -0.054689,0.058592 -0.039842,0.04185 -0.079531,0.084199 -0.1152326,0.1289081 -0.0246,0.030837 -0.047589,0.063455 -0.070368,0.09576 -0.02638,0.037455 -0.052557,0.07429 -0.076172,0.1132816 -0.023338,0.038419 -0.043619,0.078947 -0.064453,0.1191406 -0.225294,0.4366488 -0.2882735,0.9484749 -0.1582029,1.4355476 l -0.7148436,0.7148438 -1.0625,1.0625003 c -0.1953121,0.1875 -0.3007816,0.445312 -0.3046875,0.71875 z"
     style="fill:#222222"
     id="path3"
     inkscape:transform-center-x="0.70811627"
     inkscape:transform-center-y="0.9457864" />
  <path
     d="M 11.874439,0.98632619 C 10.711079,0.33463093 9.3749272,-0.03125205 7.9701422,-0.03125205 7.9166708,-0.03195916 7.8639843,-0.02916609 7.8119391,-0.0214862 7.3390918,0.05775714 6.9795245,0.46878487 6.977954,0.96679523 6.9787184,1.5184623 7.4252507,1.9650469 7.9799208,1.9667821 c 1.2662535,0.00108 2.4519722,0.398877 3.4316412,1.0839839 0.477174,0.3340218 0.906515,0.7376415 1.269531,1.1972651 0,0 0.002,0.00195 0.002,0.00195 0.175539,0.2225749 0.334982,0.4611855 0.478514,0.7089849 0.0094,0.016189 0.01812,0.032534 0.02734,0.048825 0.289018,0.5099402 0.512053,1.0648528 0.644518,1.6621308 0.417889,1.8940721 -0.10429,3.8036584 -1.300781,5.1992184 -0.435346,0.507514 -0.959192,0.949137 -1.560547,1.294922 -0.149876,0.08612 -0.3076,0.16809 -0.466798,0.242188 -0.6386709,0.297852 -1.3050526,0.473754 -1.9746081,0.537109 0,0 -0.00197,1.4e-5 -0.00197,1.4e-5 -2.0080263,0.189337 -4.0316665,-0.6441 -5.3203122,-2.322268 -0.3749305,-0.489369 -0.6585315,-1.022294 -0.8632813,-1.576172 -0.00332,-0.0091 -0.00641,-0.01829 -0.00977,-0.02734 C 1.9312759,8.9079567 1.8669108,7.7115362 2.1380912,6.5761879 c 6.364e-4,-0.00262 0.00134,-0.00516 0.00198,-0.00778 0.067414,-0.2805644 0.1533474,-0.5577163 0.2617193,-0.8281245 0.00339,-0.00863 0.00818,-0.016808 0.011696,-0.025413 C 2.6445167,5.1461056 2.9605409,4.6044267 3.372474,4.113309 3.7279416,3.6875266 3.6732553,3.0586217 3.2513804,2.7031529 2.8929607,2.4039208 2.3907456,2.393994 2.0287244,2.6504188 1.962682,2.6991512 1.9021477,2.7554145 1.8490407,2.8203444 -0.5608102,5.6884104 -0.65574706,9.8584164 1.626373,12.832049 c 2.2760658,2.973387 6.3282442,3.966291 9.722656,2.386718 2.75e-4,-1.28e-4 0.0017,-0.0018 0.002,-0.002 0.423895,-0.197454 0.823882,-0.429147 1.197305,-0.689493 0.373807,-0.260728 0.722085,-0.550176 1.041016,-0.865234 0.318551,-0.314855 0.609659,-0.655305 0.86914,-1.015625 0,0 -4e-6,-0.002 -4e-6,-0.002 1.298546,-1.803909 1.82811,-4.1211693 1.320314,-6.4062513 C 15.273361,3.950682 13.81337,2.0724853 11.874436,0.98632628 Z"
     style="fill:#222222"
     id="path2" />
</svg>
