<?xml version="1.0" encoding="UTF-8" standalone="no"?>
<svg
   version="1.1"
   viewBox="0 0 16 16.001"
   id="svg4"
   sodipodi:docname="caffeine-infinite-timer-symbolic.svg"
   inkscape:version="1.2.1 (9c6d41e410, 2022-07-14)"
   xmlns:inkscape="http://www.inkscape.org/namespaces/inkscape"
   xmlns:sodipodi="http://sodipodi.sourceforge.net/DTD/sodipodi-0.dtd"
   xmlns="http://www.w3.org/2000/svg"
   xmlns:svg="http://www.w3.org/2000/svg">
  <defs
     id="defs8" />
  <sodipodi:namedview
     id="namedview6"
     pagecolor="#ffffff"
     bordercolor="#666666"
     borderopacity="1.0"
     inkscape:showpageshadow="2"
     inkscape:pageopacity="0.0"
     inkscape:pagecheckerboard="0"
     inkscape:deskcolor="#d1d1d1"
     showgrid="false"
     inkscape:zoom="45.384582"
     inkscape:cx="4.5830543"
     inkscape:cy="8.2296672"
     inkscape:window-width="1850"
     inkscape:window-height="1016"
     inkscape:window-x="0"
     inkscape:window-y="0"
     inkscape:window-maximized="1"
     inkscape:current-layer="svg4" />
  <path
     d="M 11.305312,4.5 C 9.859375,4.5 8.7284375,5.403438 8,6.219375 7.2715625,5.403438 6.140625,4.5 4.6946875,4.5 2.658125,4.5 1,6.070625 1,8 1,9.9293806 2.658125,11.500001 4.6946875,11.500001 6.140625,11.500001 7.2715625,10.596561 8,9.7806304 8.7284375,10.596561 9.859375,11.500001 11.305312,11.500001 13.341875,11.500001 15,9.9293806 15,8 15,6.070625 13.341875,4.5 11.305312,4.5 Z M 4.6946875,9.4 C 3.8153125,9.4 3.1,8.77219 3.1,8 3.1,7.227812 3.8153125,6.6 4.6946875,6.6 c 0.835625,0 1.605625,0.789688 2.05625,1.4 -0.44625,0.60375 -1.2228125,1.4 -2.05625,1.4 z m 6.6106245,0 C 10.469687,9.4 9.6996875,8.61031 9.2490625,8 9.6953125,7.39625 10.471875,6.6 11.305312,6.6 12.184687,6.6 12.9,7.227812 12.9,8 c 0,0.77219 -0.715313,1.4 -1.594688,1.4 z"
     id="path114"
     style="stroke-width:1;fill:#808080;fill-opacity:1" />
</svg>
