<?xml version="1.0" encoding="UTF-8" standalone="no"?>
<svg
   height="16px"
   viewBox="0 0 16 16"
   width="16px"
   version="1.1"
   id="svg1"
   sodipodi:docname="caffeine-long-timer-symbolic.svg"
   inkscape:version="1.4.2 (ebf0e940d0, 2025-05-08)"
   xmlns:inkscape="http://www.inkscape.org/namespaces/inkscape"
   xmlns:sodipodi="http://sodipodi.sourceforge.net/DTD/sodipodi-0.dtd"
   xmlns="http://www.w3.org/2000/svg"
   xmlns:svg="http://www.w3.org/2000/svg">
  <defs
     id="defs1" />
  <sodipodi:namedview
     id="namedview1"
     pagecolor="#ffffff"
     bordercolor="#000000"
     borderopacity="0.25"
     inkscape:showpageshadow="2"
     inkscape:pageopacity="0.0"
     inkscape:pagecheckerboard="0"
     inkscape:deskcolor="#d1d1d1"
     showgrid="true"
     showguides="true"
     inkscape:zoom="42.756438"
     inkscape:cx="7.0164872"
     inkscape:cy="6.4668623"
     inkscape:window-width="1870"
     inkscape:window-height="1011"
     inkscape:window-x="50"
     inkscape:window-y="32"
     inkscape:window-maximized="1"
     inkscape:current-layer="svg1">
    <inkscape:grid
       id="grid3"
       units="px"
       originx="0"
       originy="0"
       spacingx="1"
       spacingy="1"
       empcolor="#0099e5"
       empopacity="0.30196078"
       color="#0099e5"
       opacity="0.14901961"
       empspacing="5"
       enabled="true"
       visible="true" />
    <sodipodi:guide
       position="8,8"
       orientation="1,0"
       id="guide3"
       inkscape:locked="false" />
    <sodipodi:guide
       position="8,8"
       orientation="0,-1"
       id="guide4"
       inkscape:locked="false" />
    <sodipodi:guide
       position="8,8"
       orientation="0.70710678,-0.70710678"
       id="guide5"
       inkscape:locked="false" />
  </sodipodi:namedview>
  <path
     d="m 10.992998,11.931003 c 0.06187,-5.96e-4 0.122342,-0.0061 0.18164,-0.01758 0.330058,-0.06362 0.611687,-0.289534 0.744141,-0.607422 0.152343,-0.378906 0.0625,-0.808594 -0.230469,-1.09375 L 11.463701,9.9876432 9.9109664,8.4349089 c 0.00847,-0.031712 0.012668,-0.063803 0.019531,-0.095703 0.00767,-0.035657 0.013847,-0.071604 0.019531,-0.1074216 0.00764,-0.047841 0.013443,-0.096006 0.017578,-0.1445316 0.00342,-0.040557 0.00491,-0.080572 0.00586,-0.1210934 0.0011,-0.04653 2.539e-4,-0.093767 -0.00195,-0.140625 -0.00205,-0.043644 -0.00489,-0.087548 -0.00977,-0.1308593 C 9.9583564,7.664891 9.9546864,7.636114 9.9500274,7.606784 9.9429874,7.562161 9.9346524,7.517977 9.9246364,7.4739718 9.9165464,7.4386288 9.9091554,7.4030488 9.8992454,7.3685033 9.8847974,7.3178523 9.8668704,7.2675122 9.8484644,7.2181125 9.8323194,7.1750915 9.8146624,7.1326355 9.7957304,7.0911593 9.7759444,7.0474973 9.7561834,7.0045023 9.7332304,6.9622532 9.7126634,6.9246362 9.6896644,6.8889232 9.6668244,6.852878 9.6543534,6.833082 9.6409574,6.813675 9.6277614,6.794284 9.4887387,6.5911197 9.3153191,6.4138067 9.1140872,6.2747549 9.0175172,6.2082179 8.9129098,6.1498277 8.8054933,6.1009271 8.7758443,6.0874821 8.7457893,6.0757401 8.7156493,6.0638181 8.6466013,6.0363671 8.5751256,6.0132061 8.5027587,5.9935061 c -0.04416,-0.011923 -0.088081,-0.024358 -0.1328129,-0.033203 -0.041854,-0.0084 -0.084284,-0.01386 -0.1269533,-0.01953 -0.042894,-0.0057 -0.085789,-0.0089 -0.1289063,-0.011721 -0.061385,-0.0041 -0.1229673,-0.0055 -0.185547,-0.0039 -0.051979,0.0014 -0.1044835,0.0024 -0.1562499,0.0078 -0.03728,0.0038 -0.074751,0.0098 -0.1113283,0.01563 -0.068119,0.010991 -0.1362188,0.022958 -0.2031252,0.041017 -0.02839,0.00761 -0.056144,0.018543 -0.083984,0.027344 -0.081082,0.025787 -0.1623266,0.053459 -0.2402343,0.089844 -0.1737844,0.080759 -0.3311515,0.1883337 -0.4726562,0.3125001 -0.019393,0.01713 -0.037728,0.034759 -0.056668,0.052708 -0.04725,0.044846 -0.092119,0.091481 -0.1347961,0.1405944 -0.0271,0.031201 -0.05333,0.06323 -0.078125,0.095703 -0.041227,0.053898 -0.079607,0.1100667 -0.1152342,0.1679689 -0.013822,0.022533 -0.026213,0.045415 -0.039063,0.068359 -0.026833,0.047727 -0.051313,0.096526 -0.074219,0.1464842 -0.031149,0.068368 -0.058988,0.1381967 -0.082031,0.2089846 -0.00852,0.026001 -0.017923,0.051694 -0.025391,0.078125 -0.013572,0.048355 -0.025292,0.097422 -0.035156,0.1464843 -0.01413,0.070008 -0.024691,0.1406823 -0.03125,0.2128906 -0.014485,0.159411 -0.00805,0.3199956 0.015625,0.4785157 0.00499,0.033268 0.00899,0.066816 0.015625,0.09961 0.00844,0.041965 0.020099,0.083541 0.03125,0.1249998 0.00841,0.030974 0.017483,0.061363 0.027344,0.091792 0.012788,0.039824 0.025673,0.080035 0.041018,0.1191465 0.014361,0.036288 0.030455,0.072126 0.046875,0.1074218 0.014059,0.030394 0.027302,0.060041 0.042969,0.089844 0.034377,0.065211 0.070052,0.128511 0.111328,0.1894533 0.018593,0.027517 0.040437,0.053307 0.060547,0.080078 0.026784,0.035566 0.054869,0.069777 0.083984,0.1035157 0.025768,0.029926 0.052253,0.059169 0.080081,0.087888 0.018611,0.019141 0.039205,0.036277 0.058592,0.054689 0.04185,0.039842 0.084199,0.079531 0.1289081,0.1152326 0.030837,0.0246 0.063455,0.047589 0.09576,0.070368 0.037455,0.02638 0.07429,0.052557 0.1132816,0.076172 0.038419,0.023338 0.078947,0.043619 0.1191406,0.064453 0.4366488,0.225294 0.9484749,0.2882735 1.4355476,0.1582029 l 0.7148438,0.7148435 1.0625003,1.0625 c 0.1875,0.195312 0.445312,0.300782 0.71875,0.304688 z"
     style="fill:#222222"
     id="path3"
     inkscape:transform-center-x="-0.9457864"
     inkscape:transform-center-y="0.70811652" />
  <path
     d="M 11.853627,0.97551039 C 10.690267,0.32381462 9.3541146,-0.04206859 7.9493296,-0.04206859 7.8958582,-0.0427757 7.8431717,-0.03998263 7.7911265,-0.03230274 7.3182793,0.0469406 6.9587119,0.45796833 6.9571415,0.95597869 6.9579058,1.5076457 7.4044381,1.9542303 7.9591082,1.9559656 9.2253625,1.957046 10.41108,2.3548431 11.390749,3.03995 c 0.477175,0.3340218 0.906516,0.7376412 1.269532,1.1972649 0,0 0.002,0.00195 0.002,0.00195 0.175539,0.2225753 0.334982,0.4611859 0.478515,0.7089845 0.0094,0.016189 0.01812,0.032533 0.02734,0.048824 0.289019,0.5099439 0.512054,1.0648567 0.644519,1.6621343 0.417889,1.894072 -0.10429,3.8036586 -1.300781,5.1992186 -0.435346,0.507514 -0.959192,0.949137 -1.560547,1.294922 -0.149876,0.08612 -0.3076,0.16809 -0.466798,0.242188 -0.6386712,0.297852 -1.3050529,0.473754 -1.9746084,0.537109 0,0 -0.00197,1.4e-5 -0.00197,1.4e-5 -2.0080263,0.189337 -4.0316661,-0.6441 -5.320312,-2.322268 -0.374931,-0.489369 -0.6585321,-1.022294 -0.8632809,-1.576172 -0.00332,-0.0091 -0.0064,-0.01829 -0.0098,-0.02734 C 1.9104394,8.8971419 1.8460744,7.7007214 2.1172545,6.5653733 c 6.364e-4,-0.00262 0.00132,-0.00514 0.00199,-0.00779 0.06741,-0.2805645 0.1533477,-0.5577167 0.2617196,-0.8281249 0.0034,-0.00863 0.00819,-0.016817 0.011698,-0.025416 C 2.6237014,5.1352753 2.9397254,4.5935965 3.3516585,4.1024788 3.7071263,3.6766963 3.6524397,3.0477917 3.2305652,2.6923225 2.8721455,2.3930904 2.3699304,2.3831636 2.0079099,2.639589 1.9418689,2.68832 1.881333,2.744585 1.828226,2.8095149 -0.58162276,5.6775941 -0.67655968,9.8476002 1.6055605,12.821233 c 2.276066,2.973387 6.3282444,3.966291 9.7226565,2.386718 2.75e-4,-1.28e-4 0.0017,-0.0018 0.002,-0.002 0.423894,-0.197453 0.823881,-0.429146 1.197304,-0.689492 0.373807,-0.260728 0.722085,-0.550176 1.041016,-0.865234 0.318551,-0.314855 0.609659,-0.655305 0.86914,-1.015625 0,0 -5e-6,-0.002 -5e-6,-0.002 1.298546,-1.803909 1.82811,-4.1211692 1.320314,-6.4062512 -0.505439,-2.2874821 -1.96543,-4.1656787 -3.904364,-5.25183746 z"
     style="fill:#222222"
     id="path2" />
</svg>
