<?xml version="1.0" encoding="UTF-8" standalone="no"?>
<svg
   height="16px"
   viewBox="0 0 16 16"
   width="16px"
   version="1.1"
   id="svg1"
   sodipodi:docname="caffeine-medium-timer-symbolic.svg"
   inkscape:version="1.4.2 (ebf0e940d0, 2025-05-08)"
   xmlns:inkscape="http://www.inkscape.org/namespaces/inkscape"
   xmlns:sodipodi="http://sodipodi.sourceforge.net/DTD/sodipodi-0.dtd"
   xmlns="http://www.w3.org/2000/svg"
   xmlns:svg="http://www.w3.org/2000/svg">
  <defs
     id="defs1" />
  <sodipodi:namedview
     id="namedview1"
     pagecolor="#ffffff"
     bordercolor="#000000"
     borderopacity="0.25"
     inkscape:showpageshadow="2"
     inkscape:pageopacity="0.0"
     inkscape:pagecheckerboard="0"
     inkscape:deskcolor="#d1d1d1"
     showgrid="true"
     showguides="true"
     inkscape:zoom="42.756438"
     inkscape:cx="7.0164872"
     inkscape:cy="6.4668623"
     inkscape:window-width="1870"
     inkscape:window-height="1011"
     inkscape:window-x="50"
     inkscape:window-y="32"
     inkscape:window-maximized="1"
     inkscape:current-layer="svg1">
    <inkscape:grid
       id="grid3"
       units="px"
       originx="0"
       originy="0"
       spacingx="1"
       spacingy="1"
       empcolor="#0099e5"
       empopacity="0.30196078"
       color="#0099e5"
       opacity="0.14901961"
       empspacing="5"
       enabled="true"
       visible="true" />
    <sodipodi:guide
       position="8,8"
       orientation="1,0"
       id="guide3"
       inkscape:locked="false" />
    <sodipodi:guide
       position="8,8"
       orientation="0,-1"
       id="guide4"
       inkscape:locked="false" />
    <sodipodi:guide
       position="8,8"
       orientation="0.70710678,-0.70710678"
       id="guide5"
       inkscape:locked="false" />
  </sodipodi:namedview>
  <path
     d="M 8.6684031,3.0607235 C 8.6242334,3.0173959 8.5775456,2.9785634 8.5275347,2.9447142 8.2491624,2.7563141 7.8902753,2.7169176 7.5718355,2.8480392 7.1961857,3.0082434 6.955879,3.3756073 6.9614036,3.7844034 l -3e-7,0.3176454 2e-7,2.1958982 c -0.028413,0.016435 -0.054073,0.036158 -0.081483,0.053862 -0.030637,0.01979 -0.060423,0.04084 -0.089769,0.062148 -0.039231,0.028426 -0.077392,0.058381 -0.1146286,0.08977 -0.031096,0.02626 -0.060445,0.053501 -0.08977,0.081482 -0.033679,0.032124 -0.066483,0.066124 -0.098058,0.1008157 -0.029411,0.032311 -0.058448,0.065364 -0.085623,0.09944 -0.018663,0.023458 -0.036417,0.046401 -0.053862,0.070435 -0.026575,0.036531 -0.051924,0.073668 -0.075958,0.1118667 -0.019271,0.030712 -0.039203,0.061097 -0.056623,0.092532 -0.025599,0.046032 -0.048519,0.094304 -0.070435,0.1422498 -0.019004,0.041837 -0.03654,0.084343 -0.052481,0.1270579 -0.016883,0.044865 -0.033312,0.08924 -0.046956,0.1353447 -0.012056,0.041142 -0.021046,0.082658 -0.030384,0.124296 -0.00518,0.022816 -0.00943,0.046011 -0.01381,0.069054 -0.045355,0.2419627 -0.048108,0.4899681 -0.00414,0.730585 0.021237,0.1153341 0.053917,0.2305908 0.095294,0.3411237 0.011458,0.030472 0.024407,0.060027 0.037289,0.089769 0.029414,0.068235 0.063577,0.1351535 0.1008183,0.2002545 0.022795,0.039657 0.045059,0.079506 0.070435,0.1173907 0.023656,0.035535 0.049797,0.069398 0.07596,0.1035792 0.0263,0.034361 0.054369,0.066955 0.082863,0.099438 0.040507,0.046305 0.083062,0.09084 0.1284438,0.1339592 0.037745,0.035765 0.075578,0.072184 0.1160008,0.10497 0.029048,0.023674 0.059787,0.045927 0.089773,0.067669 0.055938,0.040396 0.1125541,0.080088 0.1726337,0.1146284 0.025456,0.014694 0.052812,0.026588 0.078721,0.040051 0.075568,0.039099 0.1525835,0.076981 0.2334006,0.106342 0.1799893,0.065779 0.3673315,0.1009875 0.5551894,0.1132475 0.025826,0.0016 0.051256,0.0021 0.07734,0.0028 0.065122,0.0017 0.1298248,4.51e-4 0.1947305,-0.0041 0.041225,-0.0029 0.08242,-0.007 0.122915,-0.01243 0.067264,-0.00896 0.1341197,-0.021538 0.2002548,-0.037289 0.025707,-0.00616 0.050649,-0.013578 0.075959,-0.020715 0.052722,-0.014774 0.104538,-0.03197 0.1560609,-0.051099 0.070369,-0.026318 0.1394307,-0.056009 0.2057789,-0.08977 0.02441,-0.012361 0.049227,-0.02388 0.073197,-0.037289 0.043789,-0.024595 0.086772,-0.051004 0.1284391,-0.078721 0.059495,-0.039512 0.1169368,-0.082018 0.1726335,-0.1284393 0.122963,-0.1024782 0.2319632,-0.2205788 0.3273132,-0.3494102 0.019996,-0.027052 0.040889,-0.053603 0.059386,-0.081483 0.023706,-0.035642 0.04486,-0.073285 0.066291,-0.1104854 0.015955,-0.027849 0.031028,-0.055753 0.045572,-0.084242 0.019117,-0.037202 0.03844,-0.074747 0.055245,-0.1132536 0.015505,-0.035814 0.029466,-0.072536 0.042813,-0.1091043 0.01155,-0.031433 0.02315,-0.061761 0.033146,-0.093913 0.021803,-0.070419 0.041337,-0.1404051 0.055243,-0.2126845 0.00631,-0.032605 0.0091,-0.066287 0.01381,-0.099437 0.00621,-0.044088 0.010542,-0.088138 0.013811,-0.1325823 0.00294,-0.039381 0.00489,-0.078787 0.00552,-0.118772 3.747e-4,-0.026695 -0.00207,-0.053374 -0.00276,-0.080102 -0.00142,-0.057765 -0.0033,-0.1157746 -0.00967,-0.1726335 -0.00441,-0.0392 -0.011219,-0.07852 -0.017955,-0.1174698 C 9.921487,7.6435447 9.9139507,7.5989884 9.903078,7.5547191 9.8924134,7.5110503 9.8780972,7.4680514 9.8644084,7.4248985 9.7149586,6.9568346 9.3975762,6.5503856 8.9611899,6.297947 l -1e-7,-1.0109417 -3e-7,-1.5026022 C 8.9667135,3.5137142 8.858991,3.2568353 8.6684031,3.0607235 Z"
     style="fill:#222222"
     id="path3"
     inkscape:transform-center-x="0.1687159"
     inkscape:transform-center-y="-1.3745508" />
  <path
     d="M 11.881506,1.0087182 C 10.718146,0.3570231 9.3819944,-0.00886011 7.9772094,-0.00886011 7.923738,-0.00956722 7.8710515,-0.00677415 7.8190063,9.057369e-4 7.3461591,0.08014907 6.9865917,0.49117681 6.9850212,0.98918717 6.9857856,1.5408542 7.4323179,1.9874388 7.986988,1.989174 c 1.2662536,0.00108 2.451973,0.3988776 3.431641,1.0839841 0.477174,0.3340219 0.906515,0.7376416 1.269531,1.1972651 0,0 0.002,0.00195 0.002,0.00195 0.175538,0.222575 0.334981,0.4611856 0.478514,0.7089848 0.0094,0.016189 0.01812,0.032534 0.02734,0.048825 0.289016,0.5099381 0.512051,1.0648508 0.644516,1.6621287 0.417889,1.8940722 -0.10429,3.8036589 -1.300781,5.1992189 -0.435346,0.507513 -0.959191,0.949137 -1.560547,1.294922 -0.149875,0.08612 -0.3076,0.168089 -0.466797,0.242187 -0.6386713,0.297852 -1.3050533,0.473755 -1.9746088,0.53711 0,0 -0.00195,0 -0.00195,0 C 6.5278198,14.155086 4.5041799,13.321649 3.2155341,11.643481 2.8406057,11.15411 2.5570024,10.621187 2.3522531,10.067309 c -0.00336,-0.0091 -0.00644,-0.01825 -0.00977,-0.02734 C 1.9383613,8.930332 1.8739966,7.7339111 2.1451771,6.5985627 c 6.506e-4,-0.00263 0.00134,-0.00515 0.00198,-0.00778 0.067414,-0.2805653 0.1533476,-0.5577166 0.2617193,-0.8281245 0.00343,-0.00866 0.00818,-0.016803 0.011696,-0.025414 C 2.6516024,5.1684778 2.9676266,4.6267989 3.3795596,4.1356812 3.7350273,3.7098988 3.6803409,3.0809939 3.2584661,2.7255251 2.9000464,2.426293 2.3978313,2.4163662 2.03581,2.672791 1.9697677,2.7215234 1.9092334,2.7777868 1.8561264,2.8427166 -0.55372466,5.7107829 -0.64866153,9.8807889 1.6334592,12.854421 c 2.2760652,2.973388 6.3282443,3.966291 9.7226558,2.386719 2.75e-4,-1.28e-4 0.0017,-0.0018 0.002,-0.002 0.423857,-0.197414 0.823843,-0.429107 1.197266,-0.689453 0.373807,-0.260728 0.722085,-0.550176 1.041016,-0.865234 0.318551,-0.314855 0.609659,-0.655305 0.86914,-1.015625 0,0 -2e-6,-0.002 -2e-6,-0.002 1.298544,-1.803907 1.828108,-4.1211672 1.320312,-6.4062492 -0.505419,-2.2875047 -1.96541,-4.1657014 -3.904344,-5.2518606 z"
     style="fill:#222222"
     id="path2" />
</svg>
