<?xml version="1.0" encoding="UTF-8" standalone="no"?>
<svg
   height="16px"
   viewBox="0 0 16 16"
   width="16px"
   version="1.1"
   id="svg1"
   sodipodi:docname="caffeine-short-timer-symbolic.svg"
   inkscape:version="1.4.2 (ebf0e940d0, 2025-05-08)"
   xmlns:inkscape="http://www.inkscape.org/namespaces/inkscape"
   xmlns:sodipodi="http://sodipodi.sourceforge.net/DTD/sodipodi-0.dtd"
   xmlns="http://www.w3.org/2000/svg"
   xmlns:svg="http://www.w3.org/2000/svg">
  <defs
     id="defs1" />
  <sodipodi:namedview
     id="namedview1"
     pagecolor="#ffffff"
     bordercolor="#000000"
     borderopacity="0.25"
     inkscape:showpageshadow="2"
     inkscape:pageopacity="0.0"
     inkscape:pagecheckerboard="0"
     inkscape:deskcolor="#d1d1d1"
     showgrid="true"
     showguides="true"
     inkscape:zoom="45.665911"
     inkscape:cx="8.0366293"
     inkscape:cy="7.9161894"
     inkscape:window-width="1033"
     inkscape:window-height="1011"
     inkscape:window-x="569"
     inkscape:window-y="32"
     inkscape:window-maximized="0"
     inkscape:current-layer="svg1">
    <inkscape:grid
       id="grid3"
       units="px"
       originx="0"
       originy="0"
       spacingx="1"
       spacingy="1"
       empcolor="#0099e5"
       empopacity="0.30196078"
       color="#0099e5"
       opacity="0.14901961"
       empspacing="5"
       enabled="true"
       visible="true" />
    <sodipodi:guide
       position="8,8"
       orientation="1,0"
       id="guide3"
       inkscape:locked="false" />
    <sodipodi:guide
       position="8,8"
       orientation="0,-1"
       id="guide4"
       inkscape:locked="false" />
    <sodipodi:guide
       position="8,8"
       orientation="0.70710678,-0.70710678"
       id="guide5"
       inkscape:locked="false" />
  </sodipodi:namedview>
  <path
     d="m 4.0320498,11.018046 c 5.954e-4,0.06187 0.00615,0.122342 0.017578,0.18164 0.06362,0.330058 0.2895339,0.611687 0.6074218,0.744141 0.378906,0.152343 0.808594,0.0625 1.09375,-0.230469 L 5.9754091,11.488749 7.5281434,9.9360143 c 0.031712,0.00847 0.063803,0.012668 0.095703,0.019531 0.035657,0.00767 0.071604,0.013847 0.1074216,0.019531 0.047841,0.00764 0.096006,0.013443 0.1445316,0.017578 0.040557,0.00342 0.080572,0.00491 0.1210934,0.00586 0.04653,0.0011 0.093767,2.539e-4 0.140625,-0.00195 0.043644,-0.00205 0.087548,-0.00489 0.1308593,-0.00977 0.029784,-0.00339 0.058561,-0.00706 0.087891,-0.011719 0.044623,-0.00704 0.088807,-0.015375 0.1328122,-0.025391 0.035343,-0.00809 0.070923,-0.015481 0.1054685,-0.025391 0.050651,-0.014448 0.1009911,-0.032375 0.1503908,-0.050781 0.043021,-0.016145 0.085477,-0.033802 0.1269532,-0.052734 0.043662,-0.019786 0.086657,-0.039547 0.1289061,-0.0625 0.037617,-0.020567 0.07333,-0.043566 0.1093752,-0.066406 0.019796,-0.012471 0.039203,-0.025867 0.058594,-0.039063 0.2031643,-0.1390227 0.3804773,-0.3124423 0.5195291,-0.5136742 0.066537,-0.09657 0.1249272,-0.2011774 0.1738278,-0.3085939 0.013445,-0.029649 0.025187,-0.059704 0.037109,-0.089844 0.027451,-0.069048 0.050612,-0.1405237 0.070312,-0.2128906 0.011923,-0.04416 0.024358,-0.088081 0.033203,-0.1328129 0.0084,-0.041854 0.01386,-0.084284 0.01953,-0.1269533 0.0057,-0.042894 0.0089,-0.085789 0.01172,-0.1289063 0.0041,-0.061385 0.0055,-0.1229673 0.0039,-0.185547 C 10.0365,7.9016081 10.0355,7.8491036 10.0301,7.7973372 10.0263,7.7600572 10.0203,7.7225862 10.01447,7.6860089 10.003479,7.6178903 9.9915123,7.5497901 9.9734534,7.4828837 9.9658435,7.4544934 9.9549102,7.4267394 9.9461096,7.3988992 9.9203221,7.3178174 9.8926505,7.2365726 9.8562656,7.1586649 9.7755067,6.9848805 9.6679319,6.8275134 9.5437655,6.6860087 9.5266351,6.6666155 9.5090069,6.6482803 9.4910577,6.6293411 9.4462116,6.5820908 9.3995766,6.5372222 9.3504633,6.494545 9.3192622,6.4674451 9.2872338,6.441215 9.25476,6.4164203 9.2008615,6.3751932 9.1446933,6.336813 9.0867911,6.3011861 9.0642578,6.2873643 9.0413758,6.2749729 9.0184323,6.2621227 8.9707054,6.2352894 8.9219066,6.2108094 8.8719481,6.1879034 8.8035801,6.1567546 8.7337514,6.1289154 8.6629635,6.1058727 8.6369625,6.0973528 8.611269,6.0879497 8.5848381,6.0804819 8.5364833,6.0669097 8.4874157,6.0551901 8.4383538,6.0453259 8.3683453,6.0311958 8.2976715,6.0206346 8.2254632,6.0140759 8.0660522,5.999591 7.9054676,6.0060259 7.7469475,6.0297008 c -0.033268,0.00499 -0.066816,0.00899 -0.09961,0.015625 -0.041965,0.00844 -0.083541,0.020099 -0.1249998,0.03125 -0.030974,0.00841 -0.061363,0.017483 -0.091792,0.027344 -0.039824,0.012788 -0.080035,0.025673 -0.1191465,0.041018 -0.036288,0.014361 -0.072126,0.030455 -0.1074218,0.046875 -0.030394,0.014059 -0.060041,0.027302 -0.089844,0.042969 -0.065211,0.034377 -0.128511,0.070052 -0.1894533,0.111328 -0.027517,0.018593 -0.053307,0.040437 -0.080078,0.060547 -0.035566,0.026784 -0.069777,0.054869 -0.1035157,0.083984 -0.029926,0.025768 -0.059169,0.052253 -0.087888,0.080081 -0.019141,0.018611 -0.036277,0.039205 -0.054689,0.058592 -0.039842,0.04185 -0.079531,0.084199 -0.1152326,0.1289081 -0.0246,0.030837 -0.047589,0.063455 -0.070368,0.09576 -0.02638,0.037455 -0.052557,0.07429 -0.076172,0.1132816 -0.023338,0.038419 -0.043619,0.078947 -0.064453,0.1191406 C 6.0469898,7.5230529 5.9840103,8.034879 6.1140809,8.5219517 l -0.7148436,0.7148438 -1.0625,1.0625005 c -0.1953121,0.1875 -0.3007816,0.445312 -0.3046875,0.71875 z"
     style="fill:#222222"
     id="path3"
     inkscape:transform-center-x="0.70811627"
     inkscape:transform-center-y="0.9457864" />
  <path
     d="M 11.898236,1.017684 C 10.734876,0.36598873 9.3987247,1.0575047e-4 7.9939397,1.0575047e-4 7.9404683,-6.0135953e-4 7.8877818,0.00219171 7.8357366,0.0098716 7.3628893,0.08911494 7.003322,0.50014267 7.0017515,0.99815303 7.0025159,1.5498201 7.4490482,1.9964047 8.0037183,1.9981399 c 1.2662535,0.00108 2.4519717,0.398877 3.4316407,1.0839839 0.477174,0.3340218 0.906515,0.7376415 1.269531,1.1972651 0,0 0.002,0.00195 0.002,0.00195 0.175539,0.2225749 0.334982,0.4611855 0.478514,0.7089849 0.0094,0.016189 0.01812,0.032534 0.02734,0.048825 0.289018,0.5099402 0.512053,1.0648528 0.644518,1.6621308 0.417889,1.8940721 -0.10429,3.8036584 -1.300781,5.1992184 -0.435346,0.507514 -0.959192,0.949137 -1.560547,1.294922 -0.149876,0.08612 -0.3076,0.16809 -0.466798,0.242188 -0.6386704,0.297852 -1.3050521,0.473754 -1.9746076,0.537109 0,0 -0.00197,1.4e-5 -0.00197,1.4e-5 -2.0080263,0.189337 -4.0316665,-0.6441 -5.3203122,-2.322268 -0.3749305,-0.489369 -0.6585315,-1.022294 -0.8632813,-1.576172 -0.00332,-0.0091 -0.00641,-0.01829 -0.00977,-0.02734 C 1.9550734,8.9393145 1.8907083,7.742894 2.1618887,6.6075457 c 6.364e-4,-0.00262 0.00134,-0.00516 0.00198,-0.00778 C 2.2312827,6.3192013 2.3172161,6.0420494 2.425588,5.7716412 2.428978,5.7630112 2.433768,5.7548332 2.437284,5.7462282 2.6683142,5.1774634 2.9843384,4.6357845 3.3962715,4.1446668 3.7517391,3.7188844 3.6970528,3.0899795 3.2751779,2.7345107 2.9167582,2.4352786 2.4145431,2.4253518 2.0525219,2.6817766 1.9864795,2.730509 1.9259452,2.7867723 1.8728382,2.8517022 c -2.40985091,2.868066 -2.50478777,7.038072 -0.2226677,10.0117048 2.2760658,2.973387 6.3282442,3.966291 9.7226555,2.386718 2.75e-4,-1.28e-4 0.0017,-0.0018 0.002,-0.002 0.423895,-0.197454 0.823882,-0.429147 1.197305,-0.689493 0.373807,-0.260728 0.722085,-0.550176 1.041016,-0.865234 0.318551,-0.314855 0.609659,-0.655305 0.86914,-1.015625 0,0 -4e-6,-0.002 -4e-6,-0.002 1.298546,-1.803909 1.82811,-4.1211695 1.320314,-6.4062515 -0.505439,-2.2874817 -1.96543,-4.1656784 -3.904364,-5.2518374 z"
     style="fill:#222222"
     id="path2" />
</svg>
