<?xml version="1.0" encoding="UTF-8" standalone="no"?>
<svg
   height="16px"
   viewBox="0 0 16 16"
   width="16px"
   version="1.1"
   id="svg1"
   sodipodi:docname="caffeine-long-timer-symbolic.svg"
   inkscape:version="1.4.2 (ebf0e940d0, 2025-05-08)"
   xmlns:inkscape="http://www.inkscape.org/namespaces/inkscape"
   xmlns:sodipodi="http://sodipodi.sourceforge.net/DTD/sodipodi-0.dtd"
   xmlns="http://www.w3.org/2000/svg"
   xmlns:svg="http://www.w3.org/2000/svg">
  <defs
     id="defs1" />
  <sodipodi:namedview
     id="namedview1"
     pagecolor="#ffffff"
     bordercolor="#000000"
     borderopacity="0.25"
     inkscape:showpageshadow="2"
     inkscape:pageopacity="0.0"
     inkscape:pagecheckerboard="0"
     inkscape:deskcolor="#d1d1d1"
     showgrid="true"
     showguides="true"
     inkscape:zoom="36.940179"
     inkscape:cx="8.6355836"
     inkscape:cy="8.378411"
     inkscape:window-width="1033"
     inkscape:window-height="1011"
     inkscape:window-x="469"
     inkscape:window-y="32"
     inkscape:window-maximized="0"
     inkscape:current-layer="svg1">
    <inkscape:grid
       id="grid3"
       units="px"
       originx="0"
       originy="0"
       spacingx="1"
       spacingy="1"
       empcolor="#0099e5"
       empopacity="0.30196078"
       color="#0099e5"
       opacity="0.14901961"
       empspacing="5"
       enabled="true"
       visible="true" />
    <sodipodi:guide
       position="8,8"
       orientation="1,0"
       id="guide3"
       inkscape:locked="false" />
    <sodipodi:guide
       position="8,8"
       orientation="0,-1"
       id="guide4"
       inkscape:locked="false" />
    <sodipodi:guide
       position="8,8"
       orientation="0.70710678,-0.70710678"
       id="guide5"
       inkscape:locked="false" />
  </sodipodi:namedview>
  <path
     d="m 11.011652,12.006496 c 0.06187,-5.96e-4 0.122342,-0.0061 0.18164,-0.01758 0.330058,-0.06362 0.611687,-0.289534 0.744141,-0.607422 0.152343,-0.378906 0.0625,-0.808594 -0.230469,-1.09375 L 11.482355,10.063137 9.9296206,8.5104026 c 0.00847,-0.031712 0.012668,-0.063803 0.019531,-0.095703 0.00767,-0.035657 0.013847,-0.071604 0.019531,-0.1074216 0.00764,-0.047841 0.013443,-0.096006 0.017578,-0.1445316 0.0034,-0.040557 0.0049,-0.080572 0.0059,-0.1210934 0.0011,-0.04653 2.54e-4,-0.093767 -0.002,-0.140625 -0.002,-0.043644 -0.0049,-0.087548 -0.0098,-0.1308593 -0.0033,-0.029784 -0.00702,-0.058561 -0.011679,-0.087891 C 9.9616416,7.6376547 9.9533066,7.5934707 9.9432906,7.5494655 9.9352006,7.5141225 9.9278096,7.4785425 9.9178996,7.443997 9.9034516,7.393346 9.8855246,7.3430059 9.8671186,7.2936062 9.8509736,7.2505852 9.8333166,7.2081292 9.8143846,7.166653 9.7945986,7.122991 9.7748376,7.079996 9.7518846,7.0377469 9.7313176,7.0001299 9.7083186,6.9644169 9.6854786,6.9283717 9.6730076,6.9085757 9.6596116,6.8891687 9.6464156,6.8697777 9.5073929,6.6666134 9.3339733,6.4893004 9.1327414,6.3502486 9.0361714,6.2837116 8.931564,6.2253214 8.8241475,6.1764208 8.7944985,6.1629758 8.7644435,6.1512338 8.7343035,6.1393118 8.6652555,6.1118608 8.5937798,6.0886998 8.5214129,6.0689998 8.4772529,6.0570768 8.4333319,6.0446418 8.3886,6.0357968 c -0.041854,-0.0084 -0.084284,-0.01386 -0.1269533,-0.01953 -0.042894,-0.0057 -0.085789,-0.0089 -0.1289063,-0.011721 -0.061385,-0.0041 -0.1229673,-0.0055 -0.185547,-0.0039 -0.051979,0.0014 -0.1044835,0.0024 -0.1562499,0.0078 -0.03728,0.0038 -0.074751,0.0098 -0.1113283,0.01563 -0.068119,0.010991 -0.1362188,0.022958 -0.2031252,0.041017 -0.02839,0.00761 -0.056144,0.018543 -0.083984,0.027344 -0.081082,0.025787 -0.1623266,0.053459 -0.2402343,0.089844 -0.1737844,0.080759 -0.3311515,0.1883337 -0.4726562,0.3125001 -0.019393,0.01713 -0.037728,0.034759 -0.056668,0.052708 -0.04725,0.044846 -0.092119,0.091481 -0.1347961,0.1405944 -0.0271,0.031201 -0.05333,0.06323 -0.078125,0.095703 -0.041227,0.053898 -0.079607,0.1100667 -0.1152342,0.1679689 -0.013822,0.022533 -0.026213,0.045415 -0.039063,0.068359 -0.026833,0.047727 -0.051313,0.096526 -0.074219,0.1464842 -0.031149,0.068368 -0.058988,0.1381967 -0.082031,0.2089846 -0.00852,0.026001 -0.017923,0.051694 -0.025391,0.078125 -0.013572,0.048355 -0.025292,0.097422 -0.035156,0.1464843 -0.01413,0.070008 -0.024691,0.1406823 -0.03125,0.2128906 -0.014485,0.159411 -0.00805,0.3199956 0.015625,0.4785157 0.00499,0.033268 0.00899,0.066816 0.015625,0.09961 0.00844,0.041965 0.020099,0.083541 0.03125,0.1249998 0.00841,0.030974 0.017483,0.061363 0.027344,0.091792 0.012788,0.039824 0.025673,0.080035 0.041018,0.1191465 0.014361,0.036288 0.030455,0.072126 0.046875,0.1074218 0.014059,0.030394 0.027302,0.060041 0.042969,0.089844 0.034377,0.065211 0.070052,0.128511 0.111328,0.1894533 0.018593,0.027517 0.040437,0.053307 0.060547,0.080078 0.026784,0.035566 0.054869,0.069777 0.083984,0.1035157 0.025768,0.029926 0.052253,0.059169 0.080081,0.087888 0.018611,0.019141 0.039205,0.036277 0.058592,0.054689 0.04185,0.039842 0.084199,0.079531 0.1289081,0.1152326 0.030837,0.0246 0.063455,0.047589 0.09576,0.070368 0.037455,0.02638 0.07429,0.052557 0.1132816,0.076172 0.038419,0.023338 0.078947,0.043619 0.1191406,0.064453 0.4366488,0.225294 0.9484749,0.2882727 1.4355476,0.1582029 l 0.7148438,0.7148428 1.0625001,1.0625 c 0.1875,0.195312 0.445312,0.300782 0.71875,0.304688 z"
     style="fill:#222222"
     id="path3"
     inkscape:transform-center-x="-0.9457864"
     inkscape:transform-center-y="0.70811652" />
  <path
     d="M 11.898237,1.0176847 C 10.734877,0.36598896 9.3987249,1.0575047e-4 7.9939399,1.0575047e-4 7.9404685,-6.0135953e-4 7.887782,0.00219171 7.8357368,0.0098716 7.3628896,0.08911494 7.0033222,0.50014267 7.0017518,0.99815303 7.0025161,1.54982 7.4490484,1.9964046 8.0037185,1.9981399 c 1.2662543,0.00108 2.4519715,0.3988775 3.4316405,1.0839844 0.477175,0.3340218 0.906516,0.7376412 1.269532,1.1972649 0,0 0.002,0.00195 0.002,0.00195 0.175539,0.2225753 0.334982,0.4611859 0.478515,0.7089845 0.0094,0.016189 0.01812,0.032533 0.02734,0.048824 0.289019,0.5099439 0.512054,1.0648567 0.644519,1.6621343 0.417889,1.894072 -0.10429,3.803658 -1.300781,5.199218 -0.435346,0.507514 -0.959192,0.949137 -1.560547,1.294922 -0.149876,0.08612 -0.3076,0.16809 -0.466798,0.242188 -0.6386709,0.297852 -1.3050526,0.473754 -1.9746081,0.537109 0,0 -0.00197,1.4e-5 -0.00197,1.4e-5 -2.0080263,0.189337 -4.0316661,-0.6441 -5.320312,-2.322268 -0.374931,-0.489369 -0.6585321,-1.022294 -0.8632809,-1.576172 -0.00332,-0.0091 -0.0064,-0.01829 -0.0098,-0.02734 C 1.9550497,8.9393162 1.8906847,7.7428957 2.1618648,6.6075476 c 6.364e-4,-0.00262 0.00132,-0.00514 0.00199,-0.00779 0.06741,-0.2805645 0.1533477,-0.5577167 0.2617196,-0.8281249 0.0034,-0.00863 0.00819,-0.016817 0.011698,-0.025416 C 2.6683117,5.1774496 2.9843357,4.6357708 3.3962688,4.1446531 3.7517366,3.7188706 3.69705,3.089966 3.2751755,2.7344968 2.9167558,2.4352647 2.4145407,2.4253379 2.0525202,2.6817633 1.9864792,2.7304943 1.9259433,2.7867593 1.8728363,2.8516892 -0.53701245,5.7197684 -0.63194937,9.8897745 1.6501708,12.863407 c 2.276066,2.973387 6.3282444,3.966291 9.7226562,2.386718 2.75e-4,-1.28e-4 0.0017,-0.0018 0.002,-0.002 0.423894,-0.197453 0.823881,-0.429146 1.197304,-0.689492 0.373807,-0.260728 0.722085,-0.550176 1.041016,-0.865234 0.318551,-0.314855 0.609659,-0.655305 0.86914,-1.015625 0,0 -5e-6,-0.002 -5e-6,-0.002 1.298546,-1.803909 1.82811,-4.1211689 1.320314,-6.4062509 C 15.297157,3.982041 13.837166,2.1038444 11.898232,1.0176857 Z"
     style="fill:#222222"
     id="path2" />
</svg>
