<?xml version="1.0" encoding="UTF-8" standalone="no"?>
<svg
   version="1.1"
   viewBox="0 0 16 16.001"
   id="svg4"
   sodipodi:docname="caffeine-medium-timer-symbolic.svg"
   inkscape:version="1.2.1 (9c6d41e410, 2022-07-14)"
   xmlns:inkscape="http://www.inkscape.org/namespaces/inkscape"
   xmlns:sodipodi="http://sodipodi.sourceforge.net/DTD/sodipodi-0.dtd"
   xmlns="http://www.w3.org/2000/svg"
   xmlns:svg="http://www.w3.org/2000/svg">
  <defs
     id="defs8" />
  <sodipodi:namedview
     id="namedview6"
     pagecolor="#ffffff"
     bordercolor="#666666"
     borderopacity="1.0"
     inkscape:showpageshadow="2"
     inkscape:pageopacity="0.0"
     inkscape:pagecheckerboard="0"
     inkscape:deskcolor="#d1d1d1"
     showgrid="false"
     inkscape:zoom="45.254834"
     inkscape:cx="12.926796"
     inkscape:cy="8.7173008"
     inkscape:window-width="1850"
     inkscape:window-height="1016"
     inkscape:window-x="0"
     inkscape:window-y="0"
     inkscape:window-maximized="1"
     inkscape:current-layer="svg4" />
  <g
     id="g293">
    <path
       d="m 8,1 c -0.2907708,0.00341 -0.5810466,0.024937 -0.86914,0.064453 l 0.17383,0.98633 C 7.5352799,2.0203938 7.7674417,2.0034382 8,2.000002 c 3.313708,0 6,2.6862915 6,6 0,3.313708 -2.686292,6 -6,6 -1.3430266,-0.0048 -2.6455975,-0.460134 -3.6992,-1.293 l -0.71289,0.71289 c 1.245465,1.017996 2.8035347,1.575986 4.4121,1.5801 3.865993,0 7,-3.134007 7,-7 0,-3.8659932 -3.134007,-7 -7,-7 z M 6.1484,1.26172 C 5.4432132,1.4530032 4.7723227,1.7535154 4.1601,2.15234 L 4.89643,2.88672 C 5.3427297,2.6144869 5.8226941,2.4017487 6.32413,2.25391 L 6.14835,1.26172 Z M 3.3593,2.76562 C 2.9088196,3.1678899 2.5122932,3.6267675 2.1796,4.13082 L 2.95499,4.78316 C 3.2649677,4.2979211 3.6431794,3.8598287 4.07799,3.48236 L 3.35924,2.76556 Z m -1.6816,2.25 C 1.3777545,5.6432323 1.1730318,6.3120472 1.07028,7.00002 h 1.0176 C 2.1697429,6.5501369 2.3027664,6.1110867 2.48436,5.69142 L 1.67772,5.01564 Z M 1,8.00002 c 0.00504,0.6371196 0.097032,1.2705689 0.27344,1.8828 L 2.17774,9.35938 C 2.0667519,8.9145257 2.0071194,8.4584156 2.00001,7.99998 h -1 z m 1.4961,2.332 -0.875,0.50586 c 0.3070774,0.695197 0.7253178,1.335747 1.2383,1.8965 L 3.57034,12.02344 C 3.1199994,11.523836 2.7568704,10.952065 2.49614,10.33204 Z"
       fill="#808080"
       stroke-width="1.0553"
       id="path2"
       style="display:inline"
       sodipodi:nodetypes="ccccsccccscccccccccccccccccccccccccccccccc" />
    <path
       d="M 8.7347434,8.6794356 C 8.92224,8.4918814 9.0275568,8.2375297 9.027528,7.9723288 9.0278644,7.6000646 8.8213889,7.2584271 8.4916472,7.0856522 L 8.3300025,2.9963123 C 8.1626333,2.9860431 7.9948535,2.9841999 7.8272991,2.9907898 L 7.5828523,7.077372 C 7.2429669,7.2461709 7.0279166,7.5928144 7.0276533,7.9723076 7.0276976,8.5245296 7.475351,8.972183 8.027573,8.9722273 8.2927739,8.9722561 8.5471257,8.8669392 8.7346798,8.6794426 Z"
       fill="#808080"
       stroke-width="1.0553"
       id="path2-3"
       sodipodi:nodetypes="cccccccccc"
       style="display:inline" />
  </g>
</svg>
